<mxfile host="app.diagrams.net" modified="2022-09-12T21:57:49.453Z" agent="5.0 (Windows NT 10.0; Win64; x64) AppleWebKit/537.36 (KHTML, like Gecko) Chrome/103.0.0.0 Safari/537.36" etag="Y7HaCxvEoYgCgVsMZnPG" version="20.3.0" type="github">
  <diagram id="q2pMhdQhQ2usmOmokPUm" name="Page-1">
    <mxGraphModel dx="1102" dy="611" grid="1" gridSize="10" guides="1" tooltips="1" connect="1" arrows="1" fold="1" page="1" pageScale="1" pageWidth="827" pageHeight="1169" math="0" shadow="0">
      <root>
        <mxCell id="0" />
        <mxCell id="1" parent="0" />
        <mxCell id="vFC9mXj0rwGE0BQiWIOO-12" style="edgeStyle=orthogonalEdgeStyle;rounded=0;orthogonalLoop=1;jettySize=auto;html=1;entryX=0.5;entryY=0;entryDx=0;entryDy=0;" edge="1" parent="1" target="vFC9mXj0rwGE0BQiWIOO-5">
          <mxGeometry relative="1" as="geometry">
            <mxPoint x="414" y="220" as="sourcePoint" />
          </mxGeometry>
        </mxCell>
        <mxCell id="vFC9mXj0rwGE0BQiWIOO-14" style="edgeStyle=orthogonalEdgeStyle;rounded=0;orthogonalLoop=1;jettySize=auto;html=1;entryX=0.61;entryY=0.007;entryDx=0;entryDy=0;entryPerimeter=0;" edge="1" parent="1" source="vFC9mXj0rwGE0BQiWIOO-4">
          <mxGeometry relative="1" as="geometry">
            <mxPoint x="563.2" y="490.4200000000001" as="targetPoint" />
          </mxGeometry>
        </mxCell>
        <mxCell id="vFC9mXj0rwGE0BQiWIOO-15" style="edgeStyle=orthogonalEdgeStyle;rounded=0;orthogonalLoop=1;jettySize=auto;html=1;entryX=0.5;entryY=0;entryDx=0;entryDy=0;" edge="1" parent="1" source="vFC9mXj0rwGE0BQiWIOO-4">
          <mxGeometry relative="1" as="geometry">
            <mxPoint x="280" y="480" as="targetPoint" />
          </mxGeometry>
        </mxCell>
        <mxCell id="vFC9mXj0rwGE0BQiWIOO-4" value="if statement" style="rhombus;whiteSpace=wrap;html=1;" vertex="1" parent="1">
          <mxGeometry x="356" y="350" width="116" height="110" as="geometry" />
        </mxCell>
        <mxCell id="vFC9mXj0rwGE0BQiWIOO-13" style="edgeStyle=orthogonalEdgeStyle;rounded=0;orthogonalLoop=1;jettySize=auto;html=1;entryX=0.5;entryY=0;entryDx=0;entryDy=0;" edge="1" parent="1" source="vFC9mXj0rwGE0BQiWIOO-5" target="vFC9mXj0rwGE0BQiWIOO-4">
          <mxGeometry relative="1" as="geometry" />
        </mxCell>
        <mxCell id="vFC9mXj0rwGE0BQiWIOO-5" value="Input" style="shape=parallelogram;perimeter=parallelogramPerimeter;whiteSpace=wrap;html=1;fixedSize=1;" vertex="1" parent="1">
          <mxGeometry x="354" y="250" width="120" height="60" as="geometry" />
        </mxCell>
        <mxCell id="vFC9mXj0rwGE0BQiWIOO-6" value="Start" style="ellipse;whiteSpace=wrap;html=1;" vertex="1" parent="1">
          <mxGeometry x="354" y="139" width="120" height="80" as="geometry" />
        </mxCell>
        <mxCell id="vFC9mXj0rwGE0BQiWIOO-17" style="edgeStyle=orthogonalEdgeStyle;rounded=0;orthogonalLoop=1;jettySize=auto;html=1;entryX=1;entryY=0.75;entryDx=0;entryDy=0;" edge="1" parent="1" target="vFC9mXj0rwGE0BQiWIOO-9">
          <mxGeometry relative="1" as="geometry">
            <mxPoint x="560" y="550" as="sourcePoint" />
            <Array as="points">
              <mxPoint x="560" y="627" />
            </Array>
          </mxGeometry>
        </mxCell>
        <mxCell id="vFC9mXj0rwGE0BQiWIOO-16" style="edgeStyle=orthogonalEdgeStyle;rounded=0;orthogonalLoop=1;jettySize=auto;html=1;entryX=0;entryY=0.5;entryDx=0;entryDy=0;" edge="1" parent="1" target="vFC9mXj0rwGE0BQiWIOO-9">
          <mxGeometry relative="1" as="geometry">
            <mxPoint x="280" y="540" as="sourcePoint" />
            <Array as="points">
              <mxPoint x="280" y="615" />
            </Array>
          </mxGeometry>
        </mxCell>
        <mxCell id="vFC9mXj0rwGE0BQiWIOO-19" style="edgeStyle=orthogonalEdgeStyle;rounded=0;orthogonalLoop=1;jettySize=auto;html=1;" edge="1" parent="1" source="vFC9mXj0rwGE0BQiWIOO-9" target="vFC9mXj0rwGE0BQiWIOO-10">
          <mxGeometry relative="1" as="geometry" />
        </mxCell>
        <mxCell id="vFC9mXj0rwGE0BQiWIOO-9" value="Output" style="shape=parallelogram;perimeter=parallelogramPerimeter;whiteSpace=wrap;html=1;fixedSize=1;" vertex="1" parent="1">
          <mxGeometry x="352" y="585" width="120" height="60" as="geometry" />
        </mxCell>
        <mxCell id="vFC9mXj0rwGE0BQiWIOO-10" value="Stop" style="ellipse;whiteSpace=wrap;html=1;" vertex="1" parent="1">
          <mxGeometry x="352" y="687" width="120" height="80" as="geometry" />
        </mxCell>
        <mxCell id="vFC9mXj0rwGE0BQiWIOO-20" value="process" style="rounded=0;whiteSpace=wrap;html=1;" vertex="1" parent="1">
          <mxGeometry x="220" y="480" width="120" height="60" as="geometry" />
        </mxCell>
        <mxCell id="vFC9mXj0rwGE0BQiWIOO-21" value="process" style="rounded=0;whiteSpace=wrap;html=1;" vertex="1" parent="1">
          <mxGeometry x="500" y="490" width="120" height="60" as="geometry" />
        </mxCell>
      </root>
    </mxGraphModel>
  </diagram>
</mxfile>
